Patient4_TMGait_0pt6_01_right_43_EMG.mot
version=1
nRows=30
nColumns=33
inDegrees=no
endheader
time	1LAddLong	2LGlutMax	3LGlutMed	4LIliopsoas	5LSemiMemb	6LBicFemLong	7LRecFem	8LVastMed	9LVastLat	10LGasMed	11LTibAnt	12lTibPost	13LPeroneusLong	14LSol	15LExtDigLong	16LFlexDigLong	17RAddLong	18RGlutMax	19RGlutMed	20RIliopsoas	21RSemiMemb	22RBicFemLong	23RRecFem	24RVastMed	25RVastLat	26RGasMed	27RTibAnt	28RTibPost	29RPeroneusLong	30RSol	31RExtDigLong	32RFlexDigLong
51.72	-0.010834	-0.095978	-0.029297	0.012665	0.003204	-0.16159	0.089111	-0.00473	0.42419	-0.027618	0.12222	0.036011	0.36346	0.14023	0.21255	-0.00061	0.0914	-0.006714	0.22461	-0.1416	-0.092926	-0.063324	-0.63522	-0.088348	-0.003967	-0.022278	0.27176	-0.005493	-0.66299	-0.18112	0.00061	-0.009003
51.721	0.012665	-0.032959	0.058899	-0.010223	0.022125	-0.11322	0.095673	0.013275	0.18219	-0.048523	-0.16815	0.018158	0.41046	0.20935	0.38666	0.010986	0.039368	0.051422	0.30518	-0.12512	-0.098877	-0.053253	-0.42923	0.098572	0.031891	-0.020905	0.30991	-0.004425	-0.30228	-0.098724	-0.001984	-0.006714
51.722	0.001068	-0.010681	0.10239	-0.00412	0.022888	-0.020447	0.13794	0.010529	-0.15762	-0.072937	-0.31586	0.020294	0.26764	-0.033722	0.27695	0.005035	-0.004578	0.051727	0.48294	-0.0383	-0.093689	-0.058289	-0.22339	0.23163	0.043335	-0.018616	0.27374	-0.003815	0.07843	0.046692	-0.000153	-0.000916
51.723	0.005035	-0.027924	0.06485	0.018616	0.025787	0.03006	0.14221	0.009918	-0.112	-0.084229	-0.13229	0.010986	-0.15091	-0.1062	-0.14038	0.004883	-0.041046	0.043488	0.51788	-0.028534	-0.085907	-0.028381	-0.20798	0.21423	0.026245	-0.020142	0.38666	-0.008698	0.033112	0.098572	0.000458	0.000305
51.724	0.008545	-0.040283	-0.006409	0.040588	0.010529	0.011139	0.11932	-0.01709	-0.010223	-0.061188	0.22629	0.00412	-0.23651	-0.19775	-0.40802	0.012817	-0.053101	0.008392	0.51956	-0.15442	-0.065002	-0.007172	-0.26642	0.21011	0.037384	-0.016022	0.30838	-0.009003	-0.029755	0.074463	-0.000763	-0.001221
51.725	-0.005188	-0.020447	0.032806	0.052338	0.006866	0.15778	0.1918	-0.009613	0.005188	-0.040436	0.29129	0.003357	-0.25024	-0.18829	-0.70938	0.016479	-0.030518	0.006256	0.62332	-0.16342	-0.061646	0.010223	-0.15228	0.23193	0.041199	-0.00824	0.099792	-0.00412	-0.33585	-0.011902	-0.001678	-0.002747
51.726	-0.007935	-0.006256	0.056915	0.034485	-0.089874	0.23865	0.19531	0.00885	0.092468	-0.018005	0.04837	0.000763	-0.28992	-0.11765	-0.57587	0.011444	-0.041199	-0.026855	0.58212	0.039825	-0.062714	0.00824	-0.055084	0.14999	0.048676	-0.007629	-0.19287	-0.001068	-0.11765	-0.12146	0	-0.010529
51.727	-0.013123	0.050049	0.032043	0.00351	-0.19287	0.13031	0.215	0.011902	0.093689	-0.001221	-0.16708	0.002594	0.1532	-0.037537	-0.4039	-0.002594	-0.045471	-0.048065	-0.012817	0.31281	-0.061035	-0.028992	0.13809	0.16739	0.064697	-0.00061	-0.6662	-0.002747	-0.30884	-0.17334	-0.003052	0.005646
51.728	-0.017242	0.072327	0.007019	0.000763	-0.242	-0.027313	0.20889	0.021362	0.063782	0.042725	-0.12833	0.006104	0.21576	-0.094452	0.075836	0.007782	-0.018005	-0.036469	-0.002899	0.23514	-0.048523	-0.010986	0.27756	0.13107	0.070343	-0.000916	-0.49408	0.000305	0.24231	-0.15625	0.000153	0.004578
51.729	-0.009308	0.002747	0.075989	-0.009766	-0.14999	-0.12741	0.19821	0.014801	0.073547	0.063629	-0.11307	-0.002136	0.34378	0.000458	0.24597	0.014954	0.014343	-0.092926	0.11154	0.12314	-0.014343	0.014648	0.41458	0.14008	0.037994	0.007477	0.10239	-0.00946	-0.15182	-0.046692	0.001984	0.002136
51.73	0.007782	-0.059814	0.11231	0.00473	0.036316	-0.33218	0.21255	-0.00824	0.10162	0.029755	-0.11917	0.004272	0.5693	0.093079	0.17563	0.014343	0.060425	-0.14603	0.14923	0.12482	-0.007019	0.070953	0.37933	0.14679	0.042877	0.015717	-0.032806	-0.012512	-0.16983	0.018463	-0.001373	0.001221
51.731	0.023956	-0.033264	0.07019	0.008392	0.1503	-0.40573	0.17059	-0.020447	0.13367	-0.021667	0.009003	0.001984	0.68634	0.065155	0.21347	0.021057	0.059814	-0.11749	-0.068054	0.041199	-0.066986	0.10452	0.35263	0.069733	0.069275	0.004272	0.21973	-0.011139	0.25955	0.070343	-0.000458	-0.00946
51.732	0.026855	-0.051575	0.04303	0.010681	0.11444	0.015106	0.12589	-0.057831	0.12817	-0.013733	0.096283	-0.006409	-1.1629	-0.077667	0.22278	0.022736	0.042267	-0.13245	-0.19943	-0.00351	-0.099487	0.091858	0.28641	-0.001984	0.075073	-0.000763	0.22583	0.007477	0.19836	0.069122	0.007324	-0.001373
51.733	0.02533	-0.070038	0.076294	0.030212	0.16892	0.27069	0.19714	-0.032349	0.033264	0.008392	0.041504	-0.016479	-1.0867	-0.1799	0.13321	-0.002747	0.039825	-0.15472	-0.31906	-0.011444	-0.088959	0.050049	0.31906	-0.00351	0.060883	0.012207	0.28839	0.00061	-0.18005	0.046692	0	-0.00946
51.734	0.008392	-0.030518	0.12894	0.016937	0.13031	0.33844	0.17181	-0.011597	0.084534	0.021667	-0.093536	-0.02182	-0.11231	-0.20203	0.15381	-0.001373	0.072021	-0.096588	-0.06958	-0.054626	-0.13458	0.050354	0.30533	-0.014191	0.068817	0.014343	-0.41397	-0.000916	-0.20294	-0.035858	-0.00061	0.004425
51.735	0.010529	0.041046	0.13962	0.023956	0.070343	0.23422	0.17471	-0.015259	0.11383	0.018311	-0.008545	-0.027008	0.15869	-0.23331	0.10529	-0.006256	0.056458	-0.041351	-0.000916	-0.020752	-0.10941	0.080109	0.30685	-0.1088	0.074768	0.020905	-1.0991	-0.00351	0.024872	-0.11643	-0.000305	0.002289
51.736	0.01297	0.041809	-0.011902	0.008087	0.049591	-0.17044	0.23621	-0.034943	0.099182	0.044403	0.043793	-0.022278	-0.2475	-0.1889	0.054321	0.022583	0.02182	-0.103	-0.090485	0.068817	-0.082855	0.088806	0.271	-0.087585	0.054016	0.003967	-0.47974	-0.012665	0.072632	-0.053711	0.001221	-0.006866
51.737	0.017548	0.018463	0.015411	0.007324	0.021362	-0.18234	0.21729	-0.029755	0.075836	0.13184	0.051575	-0.029755	-0.47562	-0.075378	-0.001526	0.013885	-0.016327	-0.06012	-0.099487	0.058136	0.057983	0.12421	0.21454	-0.10117	0.043335	-0.023041	-0.089417	-0.013428	0.1831	-0.0177	-0.000458	-0.00885
51.738	0.010529	0.039825	0.089264	0.025177	0.015259	-0.037689	0.14511	-0.015259	0.093231	0.25711	0.015869	-0.016937	-0.066681	-0.016022	0.7933	-0.002289	-0.069885	-0.000153	0.020294	-0.035858	0.098877	0.066223	0.2179	-0.017242	0.03067	-0.05127	0.00885	-0.010223	0.34332	0.013123	0.00061	-0.014648
51.739	0.012207	0.02182	0.17059	0.018158	0.009918	0.024719	0.1535	-0.020905	0.12894	0.31097	0.037537	-0.027161	0.53497	-0.084991	-0.16724	-0.007324	-0.1152	-0.017853	0.020599	-0.06546	-0.001526	-0.028992	0.21454	-0.076141	-0.002899	-0.076599	0.11002	-0.012512	0.41	0.053406	0.001068	-0.003357
51.74	0.008087	0.019531	0.24826	0.018005	-0.012817	0.053558	0.15472	-0.015717	0.16235	0.2475	0.014191	-0.034027	1.0065	-0.11322	-0.053558	0.009308	-0.093536	-0.072479	-0.088501	-0.057678	-0.091248	-0.081329	0.16846	-0.088348	-0.020752	0.003204	0.11154	-0.017548	0.26718	0.18738	0.002289	-0.005341
51.741	0.003204	-0.022888	0.088196	-0.008392	-0.023804	0.14694	0.18265	-0.00473	0.19775	0.2272	-0.007782	-0.010223	0.1593	-0.13214	-0.37354	0.003967	-0.02243	-0.067444	-0.29007	-0.040588	-0.10834	-0.11414	0.21332	-0.20676	-0.024414	0.040131	0.017395	-0.010223	-0.049896	0.17822	-0.001068	-0.009766
51.742	0.000153	-0.046387	0.018463	-0.002747	-0.052185	0.25452	0.14862	0.001373	0.15564	0.075989	-0.041199	-0.038605	-0.88974	-0.033875	-0.17502	-0.004425	0.01709	-0.089569	-0.23605	0.026093	-0.087738	-0.10727	0.27588	-0.22507	-0.021515	0.010529	0.046692	-0.000305	-0.51559	0.020752	-0.000916	-0.015259
51.743	-0.001221	-0.031281	-0.098877	-0.027008	-0.044556	0.3508	0.1149	0.01236	0.15167	-0.25085	-0.02533	-0.021667	-0.64972	-0.007935	-0.11993	0.002594	0.050354	-0.04776	-0.042572	0.080566	-0.049133	-0.10803	0.30243	-0.26825	-0.037079	0.004272	0.19669	-0.009155	-0.44647	-0.044403	0.001068	-0.011749
51.744	0.003662	-0.015259	-0.17731	-0.043945	-0.050049	0.37186	0.15472	0.007477	0.12573	-0.27237	-0.000153	-0.030518	0.013123	-0.025635	-0.15976	0.010071	0.046387	-0.074615	0.06485	0.10635	-0.059509	-0.11734	0.37369	-0.20172	-0.029449	-0.001373	0.14297	-0.00351	0.16022	-0.05249	0.002289	-0.001068
51.745	-0.002899	0.020294	-0.12482	-0.035553	-0.032349	0.35355	0.23239	0.007172	0.063019	-0.09079	-0.025177	-0.018005	0.26932	0.023041	-0.050659	0.00824	0.071106	-0.088654	0.41779	0.15076	-0.11826	-0.090942	0.42877	-0.16586	-0.034637	0.003967	0.11322	-0.006561	0.41199	-0.034485	-0.004578	-0.018158
51.746	0.001221	0.026855	0.094757	-0.007935	-0.013733	0.08667	0.22919	0.00946	-0.002441	0.011139	-0.008392	-0.02243	0.047607	0.080109	0.29068	-0.027618	0.14633	-0.030212	0.18799	0.075531	-0.13245	-0.051575	0.37552	-0.17899	-0.015106	-0.000305	-0.059052	-0.017853	0.065002	-0.038452	0.000153	-0.010986
51.747	0.004883	0.020447	-0.010681	-0.006561	0.015717	-0.32394	0.21729	0.014343	-0.015564	-0.005493	-0.016937	-0.026855	-0.20386	0.074921	0.63217	-0.004272	0.13138	-0.02533	0.13336	-0.12253	-0.079193	-0.015717	0.37811	-0.11871	0.011749	0.002899	-0.4744	-0.016785	0.060883	-0.004578	0.003357	-0.005798
51.748	-0.000153	0.010834	0.1474	0.002899	0.040436	-0.41489	0.25162	0.015717	0.035553	-0.031586	-0.024109	-0.010223	-0.34012	-0.032349	-0.01358	-0.008392	0.059357	-0.045013	0.12863	-0.2385	-0.037079	-0.002441	0.37827	-0.028229	0.014038	0.001831	-0.21194	-0.013275	0.13443	-0.048065	0.000458	-0.003662
51.749	-0.012665	-0.016022	0.19363	0.010071	0.011902	-0.32623	0.30121	0.012207	0.041504	-0.03006	0.091248	-0.019836	0.35675	-0.14587	-0.16327	-0.006256	-0.024109	-0.079498	0.015106	-0.21759	0.001526	0.007172	0.19333	0.042877	0.02594	-0.000458	0.061951	-0.019989	-0.29144	-0.058441	0.004425	-0.007629
